<?xml version="1.0" encoding="UTF-8"?>
<svg id="Camada_1" xmlns="http://www.w3.org/2000/svg" version="1.1" viewBox="0 0 324.21 73.16">
  <!-- Generator: Adobe Illustrator 29.6.1, SVG Export Plug-In . SVG Version: 2.1.1 Build 9)  -->
  <defs>
    <style>
      .st0, .st1 {
        fill: #fff;
      }

      .st1 {
        fill-rule: evenodd;
      }
    </style>
  </defs>
  <path class="st0" d="M101.56,19.07c.53-2.59,6.19-1.49,8.21.44l2.15-4.74c-.47-.38-2.59-1.9-6.89-2.15-6.76-.38-9.16,2.75-9.58,6.04-1.07,8.82,11.5,6.7,10.65,10.68-.51,2.43-7.02,1.45-9.51-1.39l-2.78,4.58c1.83,1.36,5.06,2.84,8.44,3.19,3.64.38,9.92-.19,10.4-6.45.57-7.96-11.82-6.79-11.09-10.21"/>
  <rect class="st0" x="117.14" y="13.13" width="6.03" height="22.12"/>
  <polygon class="st0" points="141.28 22.89 133.92 13.13 128.54 13.13 128.54 35.25 134.58 35.25 134.58 23.27 139.95 30 142.61 30 147.98 23.27 147.98 35.25 154.02 35.25 154.02 13.13 148.64 13.13 141.28 22.89"/>
  <polygon class="st0" points="187.29 13.13 181.22 13.13 181.22 35.25 196.61 35.25 196.61 30.13 187.29 30.13 187.29 13.13"/>
  <polygon class="st0" points="207.07 30.13 207.07 26.74 216.04 26.74 216.04 21.63 207.07 21.63 207.07 18.25 217.02 18.25 217.02 13.13 201.03 13.13 201.03 35.25 217.56 35.25 217.56 30.13 207.07 30.13"/>
  <path class="st0" d="M168.49,13.13h-9.1v5.13h8.88c2.59,0,3.38,1.32,3.38,2.71s-.79,2.75-3.38,2.75h-8.88v11.53h6.07v-6.41h3.03c5.34,0,8.63-3.64,8.63-7.87s-3.29-7.84-8.63-7.84"/>
  <path class="st0" d="M263.22,26.71h4.96v3.19c-1.14.28-2.12.44-3.19.44-3.79,0-6.67-2.78-6.67-6.19s3.22-6.19,7.01-6.19c1.64,0,3.19.66,4.52,1.61l2.97-4.2c-2.21-1.74-4.65-2.78-7.49-2.78-7.17,0-12.89,4.87-12.89,11.57s5.37,11.54,12.55,11.54c2.88,0,6.64-1.04,8.85-2.75v-11.35h-10.62v5.12h0Z"/>
  <path class="st0" d="M312.33,12.59c-6.38,0-11.91,5.18-11.91,11.57s5.53,11.53,11.91,11.53,11.88-5.15,11.88-11.53-5.5-11.57-11.88-11.57M312.33,30.19c-3.35,0-6.07-2.69-6.07-6.03s2.72-6.07,6.07-6.07,6.07,2.72,6.07,6.07-2.72,6.03-6.07,6.03"/>
  <path class="st0" d="M235.32,13.09l-8.34,22.12h6.73l1.36-3.92h3.67c.53.03,1.74,0,2.86.98,1.3,1.13,1.85,2.94,1.85,2.94h6.73l-8.38-22.12s-6.48,0-6.48,0ZM236.87,26.18l1.71-4.87,1.71,4.87h-3.42Z"/>
  <path class="st0" d="M296.94,20.58c0-4.2-3.32-7.49-8.66-7.49h-9.07v5.12h8.85c2.59,0,3.41.98,3.41,2.37s-.82,2.4-3.41,2.4h-8.85v12.23h6.04v-7.11h2.21l4.11,7.11h6.64l-4.84-8.37c2.28-1.33,3.57-3.6,3.57-6.26"/>
  <path class="st0" d="M288.56,58.03c-.53,0-1.02-.08-1.45-.24-.43-.16-.82-.41-1.17-.74l.73-.9c.66.52,1.31.78,1.95.78.51,0,.89-.08,1.14-.23.26-.15.38-.38.38-.69,0-.23-.08-.4-.25-.5-.16-.1-.38-.16-.65-.19-.26-.03-.55-.06-.85-.08-.26-.02-.51-.05-.76-.09-.25-.05-.48-.12-.68-.23-.21-.11-.37-.27-.49-.49s-.18-.51-.18-.88c0-.67.21-1.17.63-1.5s1.05-.5,1.89-.5c.47,0,.91.07,1.33.2.41.13.8.34,1.17.61l-.75.9c-.59-.4-1.16-.61-1.72-.61-.46,0-.8.07-1.02.21-.23.14-.34.36-.34.65,0,.19.07.33.22.42.15.08.34.14.58.16s.49.05.77.06c.26,0,.53.05.8.09s.52.12.74.25c.23.12.41.3.55.54.14.24.21.56.21.97,0,.68-.23,1.18-.69,1.52-.46.33-1.15.5-2.07.5M281.04,57.95v-3.81c0-.44-.12-.78-.35-1.03-.23-.24-.55-.37-.97-.37-.38,0-.68.12-.89.35-.21.23-.31.57-.31.99l-.25-1.21c.2-.42.46-.74.78-.97.33-.23.68-.34,1.08-.34.68,0,1.21.22,1.59.67.38.44.56,1.08.56,1.89v3.82h-1.24,0ZM277.28,57.95v-3.81c0-.44-.11-.78-.33-1.03-.22-.24-.53-.37-.93-.37s-.72.11-.94.32c-.22.22-.33.52-.33.9l-.13-1.21c.19-.38.45-.68.76-.88.31-.21.66-.31,1.04-.31.66,0,1.17.22,1.54.67.36.44.55,1.08.55,1.89v3.82h-1.24,0ZM273.52,51.65h1.24v6.29h-1.24v-6.29ZM266.96,58.03c-.88,0-1.56-.24-2.04-.73-.48-.49-.72-1.18-.72-2.09v-.71c0-.94.23-1.66.7-2.17.46-.51,1.11-.77,1.95-.77.79,0,1.41.29,1.84.87.43.58.65,1.4.65,2.44v.41h-4.24v-.99h3.07c-.03-.51-.17-.9-.4-1.19-.23-.29-.53-.43-.92-.43-.46,0-.83.15-1.08.46-.26.31-.39.74-.39,1.3v.8c0,.52.14.92.41,1.2.28.28.66.42,1.17.42s1-.19,1.41-.58l.81.81c-.31.3-.66.53-1.05.7-.39.16-.78.25-1.17.25M257.3,51.65h2.84v1.12h-2.84v-1.12ZM259.42,57.95c-.52,0-.89-.14-1.13-.43-.23-.28-.35-.7-.35-1.23v-6.45h1.24v6.46c0,.15.03.27.09.35.06.09.15.13.27.13h.59v1.18h-.71,0ZM251.21,58.03c-.53,0-1.02-.08-1.45-.24s-.82-.41-1.17-.74l.73-.9c.66.52,1.31.78,1.95.78.51,0,.89-.08,1.14-.23.26-.15.38-.38.38-.69,0-.23-.08-.4-.25-.5-.16-.1-.38-.16-.65-.19-.26-.03-.55-.06-.85-.08-.26-.02-.51-.05-.76-.09-.25-.05-.48-.12-.68-.23-.21-.11-.37-.27-.49-.49-.12-.22-.18-.51-.18-.88,0-.67.21-1.17.63-1.5s1.05-.5,1.89-.5c.47,0,.91.07,1.32.2s.8.34,1.17.61l-.75.9c-.59-.4-1.16-.61-1.72-.61-.46,0-.8.07-1.02.21-.23.14-.34.36-.34.65,0,.19.07.33.22.42.15.08.34.14.58.16s.49.05.77.06c.26,0,.53.05.8.09s.52.12.74.25c.23.12.41.3.55.54s.21.56.21.97c0,.68-.23,1.18-.69,1.52-.46.33-1.15.5-2.07.5M242.83,58.46l-2.51-6.81h1.26l1.93,5.47-.68,1.34ZM244.64,51.65h1.26l-2.68,7.76c-.17.42-.4.72-.67.89s-.65.26-1.15.26h-.25v-1.19h.25c.23,0,.41-.04.55-.14.14-.09.25-.25.35-.48l2.33-7.11h0ZM233.64,58.03c-.64,0-1.22-.09-1.76-.27-.53-.18-1.01-.46-1.44-.82l.77-.94c.34.29.71.51,1.11.66.4.14.84.22,1.32.22.64,0,1.13-.12,1.48-.35s.53-.57.53-1h0c0-.34-.09-.6-.27-.77-.18-.18-.41-.31-.7-.4s-.6-.16-.95-.21c-.33-.06-.66-.13-1-.21-.34-.08-.65-.19-.93-.36-.28-.16-.51-.39-.68-.7s-.26-.72-.26-1.23h0c0-.83.27-1.46.82-1.91s1.32-.67,2.31-.67c.47,0,.94.08,1.39.23.45.15.89.39,1.32.7l-.7.98c-.67-.49-1.34-.74-2.01-.74-.6,0-1.07.12-1.4.36-.33.24-.5.58-.5,1.02h0c0,.34.1.59.29.76.19.17.45.3.76.39.31.08.65.16,1.01.24.32.06.65.14.97.23.33.09.62.22.88.4s.48.41.64.71.24.69.24,1.17h0c0,.82-.28,1.45-.85,1.9-.56.45-1.36.67-2.39.67M219.68,58.03c-.53,0-1.02-.08-1.45-.24s-.82-.41-1.17-.74l.73-.9c.66.52,1.31.78,1.95.78.51,0,.89-.08,1.15-.23.26-.15.38-.38.38-.69,0-.23-.08-.4-.25-.5-.16-.1-.38-.16-.65-.19-.26-.03-.55-.06-.85-.08-.25-.02-.51-.05-.76-.09-.25-.05-.48-.12-.68-.23-.21-.11-.37-.27-.49-.49-.12-.22-.18-.51-.18-.88,0-.67.21-1.17.63-1.5s1.05-.5,1.89-.5c.47,0,.91.07,1.32.2s.8.34,1.17.61l-.75.9c-.59-.4-1.16-.61-1.72-.61-.46,0-.8.07-1.02.21-.23.14-.34.36-.34.65,0,.19.07.33.22.42.15.08.34.14.58.16s.49.05.77.06c.26,0,.53.05.8.09s.52.12.74.25c.23.12.41.3.55.54s.21.56.21.97c0,.68-.23,1.18-.69,1.52-.46.33-1.15.5-2.07.5M211.19,58.03c-.53,0-1.02-.08-1.45-.24s-.82-.41-1.17-.74l.73-.9c.66.52,1.31.78,1.95.78.51,0,.89-.08,1.14-.23.26-.15.38-.38.38-.69,0-.23-.08-.4-.25-.5-.16-.1-.38-.16-.64-.19-.27-.03-.55-.06-.85-.08-.25-.02-.51-.05-.76-.09-.25-.05-.48-.12-.68-.23-.21-.11-.37-.27-.49-.49-.12-.22-.18-.51-.18-.88,0-.67.21-1.17.63-1.5s1.05-.5,1.89-.5c.47,0,.91.07,1.33.2.41.13.8.34,1.17.61l-.75.9c-.59-.4-1.16-.61-1.72-.61-.45,0-.8.07-1.02.21-.23.14-.34.36-.34.65,0,.19.07.33.22.42.15.08.34.14.58.16s.49.05.77.06c.26,0,.53.05.8.09s.52.12.74.25c.23.12.41.3.55.54s.21.56.21.97c0,.68-.23,1.18-.69,1.52-.46.33-1.15.5-2.07.5M202.7,58.03c-.88,0-1.56-.24-2.04-.73-.48-.49-.72-1.18-.72-2.09v-.71c0-.94.23-1.66.7-2.17.46-.51,1.11-.77,1.95-.77.79,0,1.41.29,1.84.87.43.58.65,1.4.65,2.44v.41h-4.24v-.99h3.07c-.03-.51-.17-.9-.4-1.19-.23-.29-.53-.43-.92-.43-.46,0-.83.15-1.08.46-.26.31-.39.74-.39,1.3v.8c0,.52.14.92.41,1.2.28.28.66.42,1.17.42s1-.19,1.41-.58l.81.81c-.31.3-.66.53-1.05.7-.39.16-.78.25-1.17.25M194.47,57.95v-3.81c0-.44-.11-.78-.35-1.03-.23-.24-.55-.37-.97-.37s-.72.11-.94.32c-.22.22-.33.52-.33.9l-.13-1.21c.2-.38.45-.68.76-.88.31-.21.66-.31,1.04-.31.68,0,1.21.22,1.59.67.37.44.56,1.08.56,1.89v3.82h-1.24.01ZM190.65,51.65h1.24v6.29h-1.24v-6.29ZM185.05,51.65h1.24v6.29h-1.24v-6.29ZM185.05,49.12h1.24v1.24h-1.24v-1.24ZM178.47,58.03c-.53,0-1.02-.08-1.45-.24s-.82-.41-1.17-.74l.73-.9c.67.52,1.31.78,1.95.78.51,0,.89-.08,1.14-.23.26-.15.38-.38.38-.69,0-.23-.08-.4-.25-.5-.16-.1-.38-.16-.65-.19-.27-.03-.55-.06-.85-.08-.25-.02-.51-.05-.76-.09-.25-.05-.48-.12-.68-.23-.21-.11-.37-.27-.49-.49-.12-.22-.18-.51-.18-.88,0-.67.21-1.17.63-1.5s1.05-.5,1.89-.5c.47,0,.91.07,1.32.2s.8.34,1.17.61l-.75.9c-.59-.4-1.16-.61-1.72-.61-.46,0-.8.07-1.03.21-.22.14-.34.36-.34.65,0,.19.07.33.22.42.15.08.34.14.58.16s.49.05.77.06c.26,0,.53.05.8.09s.52.12.74.25c.23.12.41.3.55.54s.2.56.2.97c0,.68-.23,1.18-.69,1.52-.46.33-1.15.5-2.07.5M168.4,51.65v3.82c0,.44.11.78.34,1.02.22.24.54.36.95.36s.72-.11.94-.33.33-.52.33-.91l.08,1.32c-.11.28-.31.54-.59.76-.28.23-.65.34-1.11.34-.7,0-1.23-.22-1.61-.67-.38-.45-.57-1.07-.57-1.89v-3.82h1.24ZM170.95,51.65h1.23v6.29h-1.23v-6.29ZM157.92,49.13h1.24v8.82h-1.24v-8.82ZM160.74,58.03c-.39,0-.73-.09-1.02-.28-.29-.19-.51-.46-.64-.8l.08-1.32c0,.27.05.5.15.69.1.19.24.33.42.44.18.1.41.15.67.15.41,0,.72-.12.95-.37.22-.25.34-.6.34-1.05v-1.36c0-.46-.11-.82-.34-1.07-.22-.25-.54-.38-.95-.38-.26,0-.49.05-.67.14-.18.1-.32.24-.42.43-.1.19-.15.41-.15.67l-.13-1.21c.19-.37.44-.65.74-.85.31-.2.65-.3,1.02-.3.68,0,1.2.22,1.57.67.37.45.55,1.08.55,1.89v1.37c0,.81-.19,1.43-.57,1.88-.38.44-.91.66-1.61.66M152.32,51.65h1.24v6.29h-1.24v-6.29ZM152.32,49.12h1.24v1.24h-1.24v-1.24ZM148,53.15c-.22-.27-.55-.4-.99-.4-.4,0-.7.11-.91.32-.22.22-.32.52-.32.9l-.13-1.21c.19-.37.44-.66.75-.88.31-.21.65-.32,1.02-.32.58,0,1.04.16,1.39.49l-.8,1.09h0ZM144.54,51.65h1.24v6.29h-1.24v-6.29ZM137.36,58.03c-.7,0-1.23-.22-1.61-.67-.38-.44-.57-1.07-.57-1.88v-1.38c0-.81.18-1.44.55-1.88.37-.45.89-.67,1.56-.67.37,0,.71.1,1.02.29.31.19.56.47.75.82l-.13,1.29c0-.27-.05-.49-.14-.68-.1-.19-.24-.33-.42-.43s-.4-.15-.67-.15c-.41,0-.72.13-.95.38-.22.25-.34.6-.34,1.06v1.36c0,.45.11.8.34,1.05s.54.37.95.37c.26,0,.49-.05.67-.15.18-.1.33-.25.42-.44.1-.19.14-.42.14-.7l.09,1.33c-.11.28-.31.54-.58.76-.28.23-.64.34-1.08.34M137.47,60.51c-.47,0-.9-.09-1.27-.26-.37-.17-.66-.42-.87-.75l.84-.76c.34.46.77.7,1.29.7.47,0,.84-.13,1.1-.39.26-.26.39-.63.39-1.11v-6.29h1.24v6.11c0,.87-.24,1.55-.71,2.03s-1.14.72-2,.72M125.61,54.83h4.64v1.18h-4.64v-1.18ZM124.11,57.95l3.25-8.82h1.05l3.25,8.82h-1.33l-2.44-7.11-2.44,7.11h-1.34Z"/>
  <path class="st1" d="M73.14,30.71V8.43c0-2.62-.01-5.25-.02-7.88,0-.21-.01-.36-.02-.47-.09-.01-.2-.01-.32-.01h-.01C64.21-.03,55.65,0,47.09.04c-9.51.04-15.22-.71-24.36,3.66-3.74,1.79-7.4,4.17-10.61,7.02-2.94,2.61-5.5,5.61-7.38,8.9-1.4,2.45-2.43,5.09-3.19,7.8C-.33,34.07.03,38.49.04,45.21l.04,27.41c0,.2.01.35.02.46.09.01.2.01.32.01h.01c9.67.11,19.97.06,29.91.01,7.9-.03,12.14.18,20.13-3.63,3.74-1.79,7.4-4.17,10.61-7.02,2.94-2.61,5.5-5.61,7.38-8.9,1.4-2.45,2.43-5.09,3.19-7.8h0c1.7-6.04,1.5-8.97,1.48-15.04ZM53.05,37.3c-.37,3.01-.73,5.15-2.28,7.85h-.01c-2.16,3.78-5.88,6.83-9.76,8.68-2.54,1.21-5.3,1.98-7.97,1.97-5.81.02-12.02.07-17.78,0-.56,0-1.06-.09-1.45-.52-.41-.46-.52-.86-.52-1.52-.01-2.62-.01-5.25,0-7.87,0-1.24.56-2.1,1.83-2.12.47-.01.96-.02,1.45-.02,3.43-.03,7.13.02,10.5.02.5,0,2.4.04,4.06.02,3.04-.04,5.66-.6,7.78-2.86,1.34-1.44,1.77-2.77,1.92-4.71.14-1.82.88-2.07,2.62-2.07h.66c2.14-.01,7.32-.04,7.66.03.2.04.91.4,1.08.85.35.91.3,1.27.21,2.27ZM59.9,27.28c-.01,1.25-.56,2.1-1.83,2.12-.47.01-.96.02-1.45.02-3.43.03-7.13-.02-10.5-.02-.5,0-2.4-.04-4.06-.02-3.04.04-5.66.6-7.78,2.86-1.34,1.43-1.77,2.76-1.92,4.7-.14,1.82-.88,2.07-2.62,2.07h-.66c-2.14.01-7.32.04-7.66-.03-.2-.04-.91-.4-1.08-.85-.35-.91-.3-1.27-.21-2.27.37-3.01.73-5.14,2.28-7.85h0c2.16-3.77,5.88-6.82,9.76-8.67,2.54-1.21,5.3-1.98,7.97-1.97,5.82-.02,12.03-.07,17.79,0,.56,0,1.06.09,1.45.52.41.46.52.86.52,1.52,0,2.62,0,5.25,0,7.87Z"/>
</svg>